<?xml version="1.0" encoding="utf-8"?>
<svg version="1.1" xmlns:xlink="http://www.w3.org/1999/xlink" width="24px" height="21px" xmlns="http://www.w3.org/2000/svg">
  <g transform="matrix(1 0 0 1 -1701 -4517 )">
    <path d="M 0 2.1  C 0 0.9402020249999998  0.8954305000000018 0  2.0000000000000018 0  L 22 0  C 23.1045695 0  24 0.9402020249999998  24 2.1  L 24 18.900000000000002  C 24 20.059797975  23.1045695 21  22 21  L 2.0000000000000018 21  C 0.8954305000000018 21  0 20.059797975  0 18.900000000000002  L 0 2.1  Z M 12 13.65  L 22 7.35  L 22 4.2  L 12 10.5  L 2.0000000000000018 4.2  L 2.0000000000000018 7.35  L 12 13.65  Z " fill-rule="nonzero" fill="#f7f7f7" stroke="none" transform="matrix(1 0 0 1 1701 4517 )" />
  </g>
</svg>