<?xml version="1.0" encoding="utf-8"?>
<svg version="1.1" xmlns:xlink="http://www.w3.org/1999/xlink" width="21px" height="21px" xmlns="http://www.w3.org/2000/svg">
  <g transform="matrix(1 0 0 1 -1747 -4517 )">
    <path d="M 12.974609375 12.974609375000002  C 13.658203125 12.291015624999998  14 11.466145833333332  14 10.5  C 14 9.533854166666664  13.658203125 8.708984375  12.974609375 8.025390625  C 12.291015625 7.341796875  11.466145833333336 7.000000000000001  10.5 7.000000000000001  C 9.533854166666668 7.000000000000001  8.708984375 7.341796875  8.025390625 8.025390625  C 7.341796875 8.708984375  7 9.533854166666664  7 10.5  C 7 11.466145833333332  7.341796875 12.291015624999998  8.025390625 12.974609375000002  C 8.708984375 13.658203125  9.533854166666668 14.000000000000002  10.5 14.000000000000002  C 11.466145833333336 14.000000000000002  12.291015625 13.658203125  12.974609375 12.974609375000002  Z M 14.314453125 6.685546875  C 15.362630208333336 7.73372395833333  15.88671875 9.00520833333333  15.88671875 10.5  C 15.88671875 11.994791666666668  15.362630208333336 13.266276041666668  14.314453125 14.314453125  C 13.266276041666668 15.362630208333332  11.994791666666668 15.88671875  10.5 15.88671875  C 9.005208333333334 15.88671875  7.733723958333334 15.362630208333332  6.685546875 14.314453125  C 5.637369791666667 13.266276041666668  5.11328125 11.994791666666668  5.11328125 10.5  C 5.11328125 9.00520833333333  5.637369791666667 7.73372395833333  6.685546875 6.685546875  C 7.733723958333334 5.637369791666665  9.005208333333334 5.113281250000001  10.5 5.113281250000001  C 11.994791666666668 5.113281250000001  13.266276041666668 5.637369791666665  14.314453125 6.685546875  Z M 16.994140625 4.005859375000001  C 17.240234375 4.251953125000001  17.36328125 4.548177083333332  17.36328125 4.894531249999999  C 17.36328125 5.240885416666666  17.240234375 5.537109375  16.994140625 5.783203125  C 16.748046875 6.029296875  16.451822916666668 6.15234375  16.10546875 6.15234375  C 15.759114583333334 6.15234375  15.462890625 6.029296875  15.216796875 5.783203125  C 14.970703125 5.537109375  14.84765625 5.240885416666666  14.84765625 4.894531249999999  C 14.84765625 4.548177083333332  14.970703125 4.251953125000001  15.216796875 4.005859375000001  C 15.462890625 3.759765625000001  15.759114583333334 3.636718750000001  16.10546875 3.636718750000001  C 16.451822916666668 3.636718750000001  16.748046875 3.759765625000001  16.994140625 4.005859375000001  Z M 11.5458984375 1.8798828124999991  C 10.912434895833336 1.8844401041666647  10.563802083333336 1.88671875  10.5 1.88671875  C 10.436197916666668 1.88671875  10.087565104166668 1.8844401041666647  9.4541015625 1.8798828124999991  C 8.820638020833334 1.8753255208333313  8.33984375 1.8753255208333313  8.01171875 1.8798828124999991  C 7.68359375 1.8844401041666647  7.243815104166667 1.8981119791666665  6.6923828125 1.9208984374999991  C 6.140950520833335 1.9436848958333321  5.671549479166668 1.9892578125  5.2841796875 2.057617187500001  C 4.896809895833334 2.125976562499999  4.570963541666667 2.210286458333332  4.306640625 2.310546874999999  C 3.850911458333334 2.4928385416666665  3.449869791666667 2.7571614583333313  3.103515625 3.103515625000001  C 2.7571614583333335 3.4498697916666656  2.4928385416666665 3.850911458333332  2.310546875 4.306640625  C 2.2102864583333335 4.570963541666665  2.1259765625 4.896809895833332  2.0576171875 5.284179687499999  C 1.9892578125 5.671549479166666  1.9436848958333335 6.140950520833331  1.9208984375 6.692382812500001  C 1.8981119791666667 7.243815104166666  1.884440104166667 7.683593749999999  1.8798828125 8.01171875  C 1.8753255208333335 8.33984375  1.8753255208333335 8.82063802083333  1.8798828125 9.4541015625  C 1.884440104166667 10.087565104166664  1.88671875 10.436197916666664  1.88671875 10.5  C 1.88671875 10.563802083333332  1.884440104166667 10.912434895833332  1.8798828125 11.5458984375  C 1.8753255208333335 12.179361979166668  1.8753255208333335 12.660156249999998  1.8798828125 12.988281249999998  C 1.884440104166667 13.316406249999998  1.8981119791666667 13.75618489583333  1.9208984375 14.307617187500002  C 1.9436848958333335 14.859049479166664  1.9892578125 15.328450520833332  2.0576171875 15.715820312499998  C 2.1259765625 16.103190104166664  2.2102864583333335 16.429036458333332  2.310546875 16.693359375  C 2.4928385416666665 17.149088541666664  2.7571614583333335 17.550130208333336  3.103515625 17.896484375  C 3.449869791666667 18.242838541666668  3.850911458333334 18.507161458333332  4.306640625 18.689453125  C 4.570963541666667 18.789713541666664  4.896809895833334 18.8740234375  5.2841796875 18.9423828125  C 5.671549479166668 19.0107421875  6.140950520833335 19.056315104166664  6.6923828125 19.0791015625  C 7.243815104166667 19.101888020833332  7.68359375 19.115559895833336  8.01171875 19.1201171875  C 8.33984375 19.124674479166668  8.820638020833334 19.124674479166668  9.4541015625 19.1201171875  C 10.087565104166668 19.115559895833336  10.436197916666668 19.11328125  10.5 19.11328125  C 10.563802083333336 19.11328125  10.912434895833336 19.115559895833336  11.5458984375 19.1201171875  C 12.179361979166668 19.124674479166668  12.66015625 19.124674479166668  12.98828125 19.1201171875  C 13.31640625 19.115559895833336  13.756184895833334 19.101888020833332  14.3076171875 19.0791015625  C 14.859049479166668 19.056315104166664  15.328450520833334 19.0107421875  15.7158203125 18.9423828125  C 16.103190104166668 18.8740234375  16.429036458333336 18.789713541666664  16.693359375 18.689453125  C 17.149088541666668 18.507161458333332  17.550130208333336 18.242838541666668  17.896484375 17.896484375  C 18.242838541666668 17.550130208333336  18.507161458333332 17.149088541666664  18.689453125 16.693359375  C 18.789713541666668 16.429036458333332  18.8740234375 16.103190104166664  18.9423828125 15.715820312499998  C 19.0107421875 15.328450520833332  19.056315104166668 14.859049479166664  19.0791015625 14.307617187500002  C 19.101888020833332 13.75618489583333  19.115559895833336 13.316406249999998  19.1201171875 12.988281249999998  C 19.124674479166668 12.660156249999998  19.124674479166668 12.179361979166668  19.1201171875 11.5458984375  C 19.115559895833336 10.912434895833332  19.11328125 10.563802083333332  19.11328125 10.5  C 19.11328125 10.436197916666664  19.115559895833336 10.087565104166664  19.1201171875 9.4541015625  C 19.124674479166668 8.82063802083333  19.124674479166668 8.33984375  19.1201171875 8.01171875  C 19.115559895833336 7.683593749999999  19.101888020833332 7.243815104166666  19.0791015625 6.692382812500001  C 19.056315104166668 6.140950520833331  19.0107421875 5.671549479166666  18.9423828125 5.284179687499999  C 18.8740234375 4.896809895833332  18.789713541666668 4.570963541666665  18.689453125 4.306640625  C 18.507161458333332 3.850911458333332  18.242838541666668 3.4498697916666656  17.896484375 3.103515625000001  C 17.550130208333336 2.7571614583333313  17.149088541666668 2.4928385416666665  16.693359375 2.310546874999999  C 16.429036458333336 2.210286458333332  16.103190104166668 2.125976562499999  15.7158203125 2.057617187500001  C 15.328450520833334 1.9892578125  14.859049479166668 1.9436848958333321  14.3076171875 1.9208984374999991  C 13.756184895833334 1.8981119791666665  13.31640625 1.8844401041666647  12.98828125 1.8798828124999991  C 12.66015625 1.8753255208333313  12.179361979166668 1.8753255208333313  11.5458984375 1.8798828124999991  Z M 20.931640625 6.166015624999999  C 20.977213541666664 6.968098958333332  21 8.412760416666666  21 10.5  C 21 12.587239583333334  20.977213541666664 14.031901041666666  20.931640625 14.833984374999998  C 20.840494791666668 16.729817708333336  20.275390625 18.197265625  19.236328125 19.236328125  C 18.197265625 20.275390625  16.729817708333336 20.840494791666664  14.833984375 20.931640625  C 14.031901041666668 20.977213541666664  12.587239583333334 21  10.5 21  C 8.412760416666666 21  6.968098958333333 20.977213541666664  6.166015625 20.931640625  C 4.270182291666667 20.840494791666664  2.8027343750000004 20.275390625  1.763671875 19.236328125  C 0.724609375 18.197265625  0.15950520833333334 16.729817708333336  0.068359375 14.833984374999998  C 0.02278645833333333 14.031901041666666  0 12.587239583333334  0 10.5  C 0 8.412760416666666  0.02278645833333333 6.968098958333332  0.068359375 6.166015624999999  C 0.15950520833333334 4.270182291666666  0.724609375 2.802734374999999  1.763671875 1.763671875  C 2.8027343750000004 0.7246093750000008  4.270182291666667 0.15950520833333204  6.166015625 0.06835937500000078  C 6.968098958333333 0.022786458333330484  8.412760416666666 0  10.5 0  C 12.587239583333334 0  14.031901041666668 0.022786458333330484  14.833984375 0.06835937500000078  C 16.729817708333336 0.15950520833333204  18.197265625 0.7246093750000008  19.236328125 1.763671875  C 20.275390625 2.802734374999999  20.840494791666668 4.270182291666666  20.931640625 6.166015624999999  Z " fill-rule="nonzero" fill="#f7f7f7" stroke="none" transform="matrix(1 0 0 1 1747 4517 )" />
  </g>
</svg>