<?xml version="1.0" encoding="utf-8"?>
<svg version="1.1" xmlns:xlink="http://www.w3.org/1999/xlink" width="22px" height="21px" xmlns="http://www.w3.org/2000/svg">
  <g transform="matrix(1 0 0 1 -1787 -4517 )">
    <path d="M 0.27213541666666663 6.823569482288829  L 5 6.823569482288829  L 5 21  L 0.27213541666666663 21  L 0.27213541666666663 6.823569482288829  Z M 4.569010416666666 0.6938010899182562  C 5.046440972222223 1.1563351498637595  5.289930555555556 1.7404632152588526  5.299479166666666 2.446185286103543  C 5.309027777777778 3.1423705722070823  5.067925347222223 3.724114441416892  4.576171875 4.19141689373297  C 4.084418402777778 4.658719346049045  3.4375 4.892370572207086  2.635416666666667 4.892370572207086  L 2.606770833333333 4.892370572207086  C 1.8237847222222225 4.892370572207086  1.193576388888889 4.658719346049045  0.7161458333333334 4.19141689373297  C 0.23871527777777773 3.724114441416892  0 3.1423705722070823  0 2.446185286103543  C 0 1.7404632152588526  0.24587673611111108 1.1563351498637595  0.7376302083333334 0.6938010899182562  C 1.2293836805555558 0.2312670299727505  1.8715277777777781 0  2.6640625 0  C 3.4565972222222223 0  4.091579861111112 0.2312670299727505  4.569010416666666 0.6938010899182562  Z M 20.510416666666664 8.118188010899182  C 21.50347222222222 9.200613079019073  22 10.786103542234333  22 12.87465940054496  L 22 21  L 17.287760416666664 21  L 17.287760416666664 13.418256130790189  C 17.287760416666664 12.416893732970026  17.094401041666664 11.6324931880109  16.707682291666664 11.065054495912806  C 16.320963541666664 10.497615803814712  15.717013888888891 10.213896457765667  14.895833333333334 10.213896457765667  C 14.294270833333334 10.213896457765667  13.790581597222223 10.378405994550407  13.384765625 10.707425068119889  C 12.97894965277778 11.036444141689374  12.67578125 11.444141689373298  12.475260416666666 11.930517711171662  C 12.370225694444446 12.216621253405995  12.317708333333334 12.602861035422343  12.317708333333334 13.08923705722071  L 12.317708333333334 21  L 7.60546875 21  C 7.624565972222223 17.194822888283376  7.634114583333333 14.10967302452316  7.634114583333333 11.744550408719348  C 7.634114583333333 9.37942779291553  7.629340277777779 7.967983651226158  7.619791666666667 7.510217983651225  L 7.60546875 6.823569482288829  L 12.317708333333334 6.823569482288829  L 12.317708333333334 8.88351498637602  L 12.2890625 8.88351498637602  C 12.480034722222223 8.5783378746594  12.67578125 8.311307901907357  12.876302083333334 8.082425068119893  C 13.076822916666666 7.853542234332425  13.346571180555557 7.605585831062669  13.685546875 7.338555858310626  C 14.024522569444446 7.0715258855585805  14.43988715277778 6.8641008174386915  14.931640625 6.716280653950955  C 15.423394097222225 6.568460490463216  15.970052083333334 6.494550408719345  16.571614583333336 6.494550408719345  C 18.204427083333336 6.494550408719345  19.51736111111111 7.035762942779291  20.510416666666664 8.118188010899182  Z " fill-rule="nonzero" fill="#f7f7f7" stroke="none" transform="matrix(1 0 0 1 1787 4517 )" />
  </g>
</svg>