<?xml version="1.0" encoding="utf-8"?>
<svg version="1.1" xmlns:xlink="http://www.w3.org/1999/xlink" width="21px" height="21px" xmlns="http://www.w3.org/2000/svg">
  <g transform="matrix(1 0 0 1 -1659 -4517 )">
    <path d="M 20.955255681818183 16.272017045454547  C 20.985085227272727 16.341619318181817  21 16.446022727272723  21 16.585227272727273  C 21 16.85369318181818  20.950284090909093 17.20419034090909  20.850852272727273 17.63671875  C 20.751420454545457 18.06924715909091  20.647017045454547 18.409801136363637  20.537642045454547 18.65838068181818  C 20.328835227272727 19.155539772727273  19.72230113636364 19.68252840909091  18.718039772727273 20.23934659090909  C 17.783380681818183 20.746448863636363  16.858664772727273 21  15.943892045454547 21  C 15.675426136363637 21  15.41193181818182 20.98259943181818  15.15340909090909 20.947798295454547  C 14.894886363636365 20.91299715909091  14.609019886363638 20.850852272727273  14.29580965909091 20.761363636363637  C 13.982599431818183 20.671875  13.74893465909091 20.599786931818183  13.59481534090909 20.545099431818183  C 13.440696022727275 20.49041193181818  13.164772727272728 20.388494318181817  12.767045454545453 20.23934659090909  C 12.369318181818183 20.090198863636363  12.125710227272728 20.000710227272727  12.03622159090909 19.970880681818183  C 11.061789772727275 19.62286931818182  10.191761363636363 19.210227272727273  9.426136363636363 18.732954545454547  C 8.163352272727273 17.94744318181818  6.8508522727272725 16.873579545454543  5.488636363636363 15.511363636363637  C 4.126420454545455 14.149147727272723  3.052556818181819 12.836647727272728  2.2670454545454546 11.573863636363637  C 1.789772727272727 10.808238636363637  1.3771306818181819 9.938210227272725  1.0291193181818181 8.96377840909091  C 0.9992897727272727 8.874289772727272  0.9098011363636365 8.630681818181817  0.7606534090909092 8.232954545454547  C 0.6115056818181818 7.835227272727272  0.5095880681818182 7.559303977272725  0.45490056818181823 7.40518465909091  C 0.4002130681818182 7.25106534090909  0.328125 7.0174005681818175  0.23863636363636365 6.70419034090909  C 0.14914772727272727 6.3909801136363615  0.08700284090909093 6.105113636363635  0.052201704545454544 5.84659090909091  C 0.01740056818181818 5.58806818181818  0 5.324573863636363  0 5.056107954545453  C 0 4.141335227272726  0.25355113636363635 3.2166193181818166  0.7606534090909092 2.2819602272727266  C 1.317471590909091 1.2776988636363602  1.8444602272727273 0.6711647727272732  2.3416193181818183 0.4623579545454537  C 2.5901988636363638 0.3529829545454529  2.930752840909091 0.2485795454545432  3.36328125 0.14914772727272685  C 3.795809659090909 0.04971590909090817  4.146306818181818 0  4.4147727272727275 0  C 4.553977272727273 0  4.6583806818181825 0.014914772727273151  4.727982954545454 0.04474431818181712  C 4.9069602272727275 0.10440340909090973  5.170454545454546 0.4822443181818179  5.518465909090908 1.1782670454545463  C 5.627840909090909 1.367187499999997  5.776988636363638 1.6356534090909065  5.965909090909092 1.9836647727272732  C 6.154829545454546 2.331676136363635  6.3288352272727275 2.6473721590909096  6.487926136363637 2.9307528409090904  C 6.647017045454546 3.2141335227272734  6.801136363636363 3.480113636363635  6.950284090909092 3.728693181818183  C 6.980113636363637 3.7684659090909065  7.0671164772727275 3.892755681818183  7.211292613636363 4.1015625  C 7.355468750000002 4.3103693181818175  7.462357954545456 4.486860795454545  7.531960227272727 4.6310369318181825  C 7.6015625 4.775213068181817  7.636363636363637 4.9169034090909065  7.636363636363637 5.056107954545453  C 7.636363636363637 5.254971590909089  7.494673295454545 5.503551136363637  7.211292613636363 5.80184659090909  C 6.927911931818182 6.100142045454547  6.619673295454546 6.373579545454545  6.286576704545455 6.62215909090909  C 5.953480113636364 6.870738636363633  5.645241477272727 7.134232954545454  5.361860795454545 7.412642045454547  C 5.078480113636363 7.691051136363636  4.9367897727272725 7.9197443181818175  4.9367897727272725 8.09872159090909  C 4.9367897727272725 8.188210227272727  4.9616477272727275 8.300071022727273  5.011363636363637 8.434303977272727  C 5.061079545454546 8.568536931818183  5.103338068181818 8.670454545454545  5.138139204545454 8.740056818181817  C 5.172940340909092 8.80965909090909  5.242542613636363 8.928977272727272  5.346946022727273 9.098011363636363  C 5.451349431818182 9.267045454545455  5.5085227272727275 9.361505681818182  5.518465909090908 9.381392045454547  C 6.2741477272727275 10.743607954545451  7.139204545454546 11.911931818181817  8.113636363636363 12.886363636363637  C 9.088068181818182 13.860795454545451  10.256392045454547 14.725852272727272  11.618607954545453 15.481534090909093  C 11.638494318181818 15.49147727272727  11.732954545454545 15.54865056818182  11.901988636363637 15.653053977272727  C 12.071022727272728 15.757457386363637  12.19034090909091 15.827059659090907  12.259943181818183 15.861860795454547  C 12.329545454545455 15.896661931818182  12.431463068181817 15.938920454545453  12.565696022727273 15.988636363636363  C 12.699928977272727 16.038352272727273  12.811789772727273 16.063210227272727  12.90127840909091 16.063210227272727  C 13.080255681818183 16.063210227272727  13.308948863636363 15.921519886363637  13.587357954545453 15.638139204545453  C 13.865767045454545 15.354758522727273  14.129261363636367 15.046519886363635  14.37784090909091 14.713423295454547  C 14.626420454545455 14.38032670454545  14.899857954545453 14.07208806818182  15.19815340909091 13.788707386363637  C 15.496448863636363 13.505326704545453  15.745028409090912 13.363636363636363  15.943892045454547 13.363636363636363  C 16.083096590909093 13.363636363636363  16.224786931818183 13.398437499999998  16.368963068181817 13.468039772727273  C 16.513139204545457 13.537642045454543  16.689630681818183 13.644531249999998  16.8984375 13.788707386363637  C 17.107244318181817 13.93288352272727  17.231534090909093 14.019886363636363  17.271306818181817 14.049715909090907  C 17.519886363636363 14.198863636363637  17.785866477272727 14.352982954545451  18.06924715909091 14.512073863636363  C 18.35262784090909 14.67116477272727  18.668323863636363 14.845170454545451  19.016335227272727 15.034090909090907  C 19.364346590909093 15.223011363636363  19.632812500000004 15.37215909090909  19.821732954545453 15.481534090909093  C 20.517755681818183 15.829545454545451  20.89559659090909 16.093039772727273  20.955255681818183 16.272017045454547  Z " fill-rule="nonzero" fill="#f7f7f7" stroke="none" transform="matrix(1 0 0 1 1659 4517 )" />
  </g>
</svg>