<?xml version="1.0" encoding="utf-8"?>
<svg version="1.1" xmlns:xlink="http://www.w3.org/1999/xlink" width="34px" height="44px" xmlns="http://www.w3.org/2000/svg">
  <g transform="matrix(1 0 0 1 -33 -27 )">
    <path d="M 33.05555555555556 15.583333333333334  C 33.05555555555556 21.538591983333333  29.613786933333337 26.71362576666667  24.555555555555554 29.33681428333334  L 24.555555555555554 33  C 24.555555555555554 35.025044083333334  22.86418683333333 36.66666666666667  20.77777777777778 36.66666666666667  L 13.222222222222223 36.66666666666667  C 11.135813166666665 36.66666666666667  9.444444444444445 35.025044083333334  9.444444444444445 33  L 9.444444444444445 29.33681428333334  C 4.38621302888889 26.71362576666667  0.9444444444444444 21.538591983333333  0.9444444444444444 15.583333333333334  C 0.9444444444444444 6.976895988333333  8.132761523333334 0  17 0  C 25.867238533333328 0  33.05555555555556 6.976895988333333  33.05555555555556 15.583333333333334  Z M 11.333333333333332 42.16666666666667  L 11.333333333333332 40  L 22.666666666666664 40  L 22.666666666666664 42.16666666666667  C 22.666666666666664 43.179188616666664  21.820982211111108 44  20.77777777777778 44  L 13.222222222222223 44  C 12.179017694444443 44  11.333333333333332 43.179188616666664  11.333333333333332 42.16666666666667  Z M 20.77777777777778 33  L 20.77777777777778 26.9252511  C 25.710165333333332 25.378729933333332  29.27777777777778 20.885408133333335  29.27777777777778 15.583333333333334  C 29.27777777777778 9.001940071666667  23.780829477777775 3.6666666666666665  17 3.6666666666666665  C 10.219170578888889 3.6666666666666665  4.722222222222222 9.001940071666667  4.722222222222222 15.583333333333334  C 4.722222222222222 20.885408133333335  8.289834628888888 25.378729933333332  13.222222222222223 26.9252511  L 13.222222222222223 33  L 20.77777777777778 33  Z " fill-rule="nonzero" fill="#ffd30c" stroke="none" transform="matrix(1 0 0 1 33 27 )" />
  </g>
</svg>