<?xml version="1.0" encoding="utf-8"?>
<svg version="1.1" xmlns:xlink="http://www.w3.org/1999/xlink" width="23px" height="20px" xmlns="http://www.w3.org/2000/svg">
  <g transform="matrix(1 0 0 1 -1280 -719 )">
    <path d="M 16.983944816666668 12.259306799999997  C 19.803211408333333 12.766341699999998  23 14.0160056  23 16  L 23 20  L 19.166666666666668 20  L 19.166666666666668 16  C 19.166666666666668 14.465458300000002  18.316346125 13.214323  16.983944816666668 12.259306799999997  Z M 14.375 10  C 14.046699437500001 10  13.726136075 9.9655913  13.4164396375 9.9000397  C 14.602305166666666 8.6375754  15.333333333333332 6.908162519999999  15.333333333333332 5  C 15.333333333333332 3.0918374799999997  14.602305166666666 1.36242456  13.4164396375 0.09996034999999992  C 13.726136075 0.03440871000000012  14.046699437500001 0  14.375 0  C 17.022395833333334 0  19.166666666666668 2.2375  19.166666666666668 5  C 19.166666666666668 7.762499999999999  17.022395833333334 10  14.375 10  Z M 8.625 0  C 11.272395833333333 0  13.416666666666668 2.2375  13.416666666666668 5  C 13.416666666666668 7.762499999999999  11.272395833333333 10  8.625 10  C 5.977604166666667 10  3.833333333333333 7.762499999999999  3.833333333333333 5  C 3.833333333333333 2.2375  5.977604166666667 0  8.625 0  Z M 0 20  L 0 16  C 0 13.34  5.74640625 12  8.625 12  C 11.503593749999999 12  17.25 13.34  17.25 16  L 17.25 20  L 0 20  Z " fill-rule="nonzero" fill="#ffffff" stroke="none" transform="matrix(1 0 0 1 1280 719 )" />
  </g>
</svg>