<?xml version="1.0" encoding="utf-8"?>
<svg version="1.1" xmlns:xlink="http://www.w3.org/1999/xlink" width="21px" height="21px" xmlns="http://www.w3.org/2000/svg">
  <g transform="matrix(1 0 0 1 -158 -865 )">
    <path d="M 12.595809922049822 14.394472958373084  C 12.577963670791656 14.376633033329474  12.561897750137407 14.357776137140272  12.54761219101827 14.338104768785424  C 11.251629295459157 15.265242567674377  9.652656236217199 15.806451612903224  7.906028368794327 15.806451612903224  C 3.478652482269499 15.806451612903224  0 12.329032258064522  0 7.903225806451612  C 0 3.4774193548387107  3.478652482269499 0  7.906028368794327 0  C 12.333404255319152 0  15.812056737588653 3.4774193548387107  15.812056737588653 7.903225806451612  C 15.812056737588653 9.591946562504617  15.305600537213873 11.142591863201023  14.433229693211207 12.414670114513774  C 14.461246099942942 12.432527640082787  14.487855048620291 12.453784828684597  14.512520643819316 12.478441680319213  C 14.512520643819316 12.478441680319213  20.827948943198404 19.024881880336594  20.827948943198404 19.024881880336594  C 21.00684194389689 19.203711466288283  21.00684194389689 19.484729387069528  20.827948943198404 19.66355897302122  L 19.55014179535208 20.940913158390465  C 19.371248794653596 21.119742744342158  19.090131222127393 21.119742744342158  18.91123822142891 20.940913158390465  L 12.595809922049822 14.394472958373084  Z M 13.553191489361703 7.903225806451612  C 13.553191489361703 4.741935483870967  11.068439716312056 2.2580645161290325  7.906028368794327 2.2580645161290325  C 4.743617021276596 2.2580645161290325  2.2588652482269502 4.741935483870967  2.2588652482269502 7.903225806451612  C 2.2588652482269502 11.064516129032258  4.743617021276596 13.548387096774194  7.906028368794327 13.548387096774194  C 11.068439716312056 13.548387096774194  13.553191489361703 11.064516129032258  13.553191489361703 7.903225806451612  Z " fill-rule="nonzero" fill="#326797" stroke="none" transform="matrix(1 0 0 1 158 865 )" />
  </g>
</svg>