<?xml version="1.0" encoding="utf-8"?>
<svg version="1.1" xmlns:xlink="http://www.w3.org/1999/xlink" width="25px" height="24px" xmlns="http://www.w3.org/2000/svg">
  <g transform="matrix(1 0 0 1 -119 -54 )">
    <path d="M 22.0144284 8  L 22.0144284 3.41682007  L 12.4142136 13.0170349  L 11 11.6028214  L 20.6028214 2  L 16.0144284 2  L 16.0144284 0  L 24.0144284 0  L 24.0144284 8  L 22.0144284 8  Z M 0 12  C 0 5.373  5.37225 0  12 0  L 12 2  C 6.47714286 2  2 6.47714286  2 12  C 2 17.5228571  6.47714286 22  12 22  C 17.5228571 22  22 17.5228571  22 12  L 24 12  C 24 18.627  18.62775 24  12 24  C 5.37225 24  0 18.627  0 12  Z " fill-rule="nonzero" fill="#ff8f0c" stroke="none" transform="matrix(1 0 0 1 119 54 )" />
  </g>
</svg>