<?xml version="1.0" encoding="utf-8"?>
<svg version="1.1" xmlns:xlink="http://www.w3.org/1999/xlink" width="14px" height="14px" xmlns="http://www.w3.org/2000/svg">
  <g transform="matrix(1 0 0 1 -488 -470 )">
    <path d="M 13.528846153846153 5.019533711405167  C 13.842948717948719 5.072463768115943  14 5.207729468599034  14 5.425330812854443  C 14 5.554715395925225  13.927083333333334 5.695862213820624  13.78125 5.848771266540643  L 10.727163461538462 8.971644612476371  L 11.450721153846153 13.382482671707624  C 11.45633012820513 13.423650493593783  11.459134615384617 13.482461667716866  11.459134615384617 13.558916194076875  C 11.459134615384617 13.68241965973535  11.4296875 13.786809493803823  11.37079326923077 13.872085696282292  C 11.311899038461538 13.957361898760764  11.22636217948718 14  11.114182692307692 14  C 11.00761217948718 14  10.895432692307692 13.96471329552615  10.77764423076923 13.89413988657845  L 7 11.812224322621299  L 3.222355769230769 13.89413988657845  C 3.0989583333333335 13.96471329552615  2.986778846153846 14  2.8858173076923075 14  C 2.768028846153846 14  2.6796875 13.957361898760764  2.620793269230769 13.872085696282292  C 2.5618990384615383 13.786809493803823  2.532451923076923 13.68241965973535  2.532451923076923 13.558916194076875  C 2.532451923076923 13.523629489603024  2.538060897435898 13.46481831547994  2.549278846153846 13.382482671707624  L 3.2728365384615383 8.971644612476371  L 0.21033653846153846 5.848771266540643  C 0.07011217948717949 5.689981096408317  0 5.548834278512918  0 5.425330812854443  C 0 5.207729468599034  0.15705128205128202 5.072463768115943  0.47115384615384615 5.019533711405167  L 4.694711538461538 4.375551354757404  L 6.587740384615385 0.36168872085696213  C 6.694310897435898 0.12056290695232019  6.831730769230769 0  7 0  C 7.16826923076923 0  7.305689102564102 0.12056290695232019  7.412259615384616 0.36168872085696213  L 9.305288461538462 4.375551354757404  L 13.528846153846153 5.019533711405167  Z " fill-rule="nonzero" fill="#ffffff" stroke="none" transform="matrix(1 0 0 1 488 470 )" />
  </g>
</svg>