<?xml version="1.0" encoding="utf-8"?>
<svg version="1.1" xmlns:xlink="http://www.w3.org/1999/xlink" width="41px" height="40px" xmlns="http://www.w3.org/2000/svg">
  <g transform="matrix(1 0 0 1 -547 -33 )">
    <path d="M 19 3.076923076923075  L 19 21.394230769230766  L 31.177083333333332 34.51923076923077  C 29.50038580246914 36.25  27.54292052469136 37.59615384615385  25.3046875 38.55769230769231  C 23.066454475308646 39.519230769230774  20.705632716049383 40  18.22222222222222 40  C 14.916280864197532 40  11.86738040123457 39.17467948717949  9.075520833333332 37.52403846153846  C 6.2836612654321 35.87339743589744  4.073109567901235 33.6338141025641  2.443865740740741 30.805288461538463  C 0.8146219135802468 27.976762820512818  0 24.88782051282051  0 21.538461538461537  C 0 18.18910256410256  0.8146219135802468 15.100160256410252  2.443865740740741 12.271634615384617  C 4.073109567901235 9.443108974358974  6.2836612654321 7.203525641025639  9.075520833333332 5.552884615384617  C 11.86738040123457 3.902243589743586  14.916280864197532 3.076923076923075  19 3.076923076923075  Z M 35.59027777777778 34.66346153846154  L 22.65914351851852 21  L 41 21  C 41.00000000000001 24.054487179487182  40.52546296296297 26.446314102564095  39.57638888888889 28.713942307692307  C 38.627314814814824 30.98157051282051  37.298611111111114 32.964743589743584  35.59027777777778 34.66346153846154  Z M 37.03761574074074 9.194711538461537  C 38.666859567901234 12.023237179487175  39.48148148148148 15.112179487179485  39.48148148148148 19  L 21 19  L 21 0  C 24.565200617283953 0  27.61410108024692 0.8253205128205154  30.40596064814815 2.4759615384615374  C 33.19782021604938 4.126602564102559  35.40837191358025 6.366185897435894  37.03761574074074 9.194711538461537  Z " fill-rule="nonzero" fill="#ff8f0c" stroke="none" transform="matrix(1 0 0 1 547 33 )" />
  </g>
</svg>