<?xml version="1.0" encoding="utf-8"?>
<svg version="1.1" xmlns:xlink="http://www.w3.org/1999/xlink" width="34px" height="34px" xmlns="http://www.w3.org/2000/svg">
  <g transform="matrix(1 0 0 1 -390 -39 )">
    <path d="M 28 22  L 28 8.5  L 32.583333333333336 8.5  C 33.36573665833333 8.5  34 9.134263270833333  34 9.916666666666668  L 34 34  L 28.333333333333336 28  L 9.916666666666668 28  C 9.134263270833333 28.333333333333336  8.5 27.69906999166667  8.5 26.916666666666664  L 8.5 22  L 28 22  Z M 24.083333333333336 19.833333333333336  L 7.083333333333334 19.833333333333336  L 0 28.333333333333336  L 0 1.4166666666666665  C 0 0.6342632708333333  0.6342632708333333 0  1.4166666666666665 0  L 24.083333333333336 0  C 24.865736658333333 0  25.5 0.6342632708333333  25 1.4166666666666665  L 25 18.416666666666664  C 25.5 19.199069991666665  24.865736658333333 19.833333333333336  24.083333333333336 19.833333333333336  Z " fill-rule="nonzero" fill="#ff8f0c" stroke="none" transform="matrix(1 0 0 1 390 39 )" />
  </g>
</svg>