<?xml version="1.0" encoding="utf-8"?>
<svg version="1.1" xmlns:xlink="http://www.w3.org/1999/xlink" width="46px" height="34px" xmlns="http://www.w3.org/2000/svg">
  <g transform="matrix(1 0 0 1 -704 -39 )">
    <path d="M 45.35125066524747 18.859375  C 45.78375022174916 19.0686553030303  46 19.414772727272727  46 19.897727272727273  C 46 20.3967803030303  45.747028561291465 20.9280303030303  45.2410856838744 21.491477272727273  L 37.015433741351785 31.053977272727273  C 36.31364200816037 31.875  35.33031754479333 32.57125946969697  34.065460351250664 33.14275568181818  C 32.800603157708004 33.7142518939394  31.62959020755721 34  30.552421500798296 34  L 3.916977115486961 34  C 3.3620720241263085 34  2.8683697001951396 33.89535984848485  2.435870143693454 33.68607954545455  C 2.003370587191769 33.47679924242424  1.787120808940926 33.13068181818182  1.787120808940926 32.64772727272727  C 1.787120808940926 32.14867424242424  2.040092247649459 31.617424242424242  2.5460351250665245 31.053977272727273  L 10.771687067589143 21.491477272727273  C 11.473478800780558 20.670454545454543  12.456803264147597 19.974195075757574  13.72166045769026 19.402698863636363  C 14.986517651232926 18.83120265151515  16.157530601383716 18.545454545454543  17.234699308142627 18  L 43.87014369345396 18  C 44.42504878481462 18.545454545454543  44.91875110874579 18.650094696969695  45.35125066524747 18.859375  Z M 35.987227248536456 7.77556818181818  C 37.06439595529537 8.83806818181818  37.60298030867482 10.10984848484848  37.60298030867482 11.590909090909092  L 37.60298030867482 16  L 17.234699308142627 16  C 15.700549937910235 15.454545454545457  14.092957246762463 15.83688446969697  12.411921234699307 16.6015625  C 10.730885222636154 17.36624053030303  9.39258470817811 18.328125  8.397019691325173 19.487215909090914  L 0.14688664183076103 29.049715909090907  L 0.024481106971793506 29.194602272727273  C 0.024481106971793506 29.130208333333332  0.02040092247649459 29.029592803030305  0.012240553485896753 28.892755681818183  C 0.004080184495298918 28.75591856060606  0 28.655303030303035  0 28.590909090909093  L 0 5.409090909090908  C 0 3.9280303030302974  0.5385843533794571 2.65625  1.6157530601383716 1.59375  C 2.6929217668972862 0.53125  3.9822600674117443 0  5.483767961681745 0  L 13.317722192655667 0  C 14.81923008692567 0  16.108568387440126 0.53125  17.18573709419904 1.59375  C 18.262905800957956 2.65625  18.80149015433741 3.9280303030302974  18.80149015433741 5.409090909090908  L 18.80149015433741 6.18181818181818  L 32.11921234699308 6.18181818181818  C 33.620720241263086 6.18181818181818  34.91005854177754 6.71306818181818  35.987227248536456 7.77556818181818  Z " fill-rule="nonzero" fill="#ff8f0c" stroke="none" transform="matrix(1 0 0 1 704 39 )" />
  </g>
</svg>