<?xml version="1.0" encoding="utf-8"?>
<svg version="1.1" xmlns:xlink="http://www.w3.org/1999/xlink" width="28px" height="28px" xmlns="http://www.w3.org/2000/svg">
  <g transform="matrix(1 0 0 1 -1316 -41 )">
    <path d="M 26.574262215771654 23.8885987126728  C 27.577810030640222 24.633138123878865  27.862280277374623 25.6258573388203  27.68843734881471 26.784029756251975  C 27.61205181959899 27.288144982589426  27.259097994947055 27.61129576870318  26.766543030693978 27.737970876859762  C 26.392517335913567 27.833623509549437  25.997419771004676 27.903424079350003  25.612858141160032 27.906009285638916  C 17.774122453367738 27.91376490450564  9.935386765575448 27.91376490450564  2.096651077783155 27.906009285638916  C 1.77003709079181 27.906009285638916  1.438155136268346 27.85947557243853  1.1194431005751784 27.787089796349058  C 0.4109014675052432 27.626807006436636  0.07638552921572002 27.228685237944497  0.01580390259635743 26.517753508494252  C -0.07901951298177513 25.40870001055186  0.27920227920228124 24.506463015722275  1.2327044025157254 23.84206499947241  C 1.417083266139872 23.71280468502691  1.569854324571308 23.431017199535724  1.5961941622319 23.20351904611164  C 1.8885663602644756 20.778595547114072  2.281029941407302 18.356257254405406  2.402193194646027 15.923578136541106  C 2.6708595387840695 10.525667405297042  6.548083642423268 6.3841669304632305  11.186529054453587 5.347499208610325  C 11.283986453797777 5.3268175582990445  11.376175885609852 5.275113432520845  11.51841100897705 5.218238894164824  C 11.51841100897705 4.344439168513248  11.51314304144493 3.4602986177060293  11.51841100897705 2.576158066898812  C 11.528946944041286 1.1206869262424863  12.529860775143797 0.0685079666561194  13.881094447132186 0.07884879181175317  C 15.240230070418752 0.08918961696739913  16.206902112562492 1.1310277513981264  16.217438047626732 2.599424923499002  C 16.22270601515885 3.468054236572759  16.217438047626732 4.334098343357607  16.217438047626732 5.259602194787384  C 18.113906359189382 5.683576026168623  19.7733161318067 6.45138229397489  21.208837284308988 7.653503218318036  C 23.568886738698065 9.628600823045272  24.92538837821857 12.128495304421234  25.249368381443855 15.163527487601568  C 25.533838628178255 17.831460377756677  25.820942858678713 20.501978474200705  26.137020910605823 23.167326158066906  C 26.168628715798533 23.425846786957905  26.360909530720853 23.730901129049286  26.574262215771654 23.8885987126728  Z " fill-rule="nonzero" fill="#a29f9d" stroke="none" transform="matrix(1 0 0 1 1316 41 )" />
  </g>
</svg>