<?xml version="1.0" encoding="utf-8"?>
<svg version="1.1" xmlns:xlink="http://www.w3.org/1999/xlink" width="42px" height="33px" xmlns="http://www.w3.org/2000/svg">
  <g transform="matrix(1 0 0 1 -226 -43 )">
    <path d="M 8.12109375 23.12109375  C 8.70703125 22.53515625  9 21.828124999999996  9 21  C 9 20.171874999999993  8.70703125 19.46484375  8.12109375 18.878906249999996  C 7.53515625 18.29296875  6.828125000000002 18  6 18  C 5.171875 18  4.46484375 18.29296875  3.87890625 18.878906249999996  C 3.2929687500000004 19.46484375  3 20.171874999999993  3 21  C 3 21.828124999999996  3.2929687500000004 22.53515625  3.87890625 23.12109375  C 4.46484375 23.70703125  5.171875 24  6 24  C 6.828125000000002 24  7.53515625 23.70703125  8.12109375 23.12109375  Z M 12.62109375 12.62109375  C 13.20703125 12.035156250000002  13.500000000000002 11.328125  13.500000000000002 10.500000000000002  C 13.500000000000002 9.671874999999996  13.20703125 8.964843749999998  12.62109375 8.37890625  C 12.03515625 7.792968750000002  11.328125 7.500000000000001  10.5 7.500000000000001  C 9.671875 7.500000000000001  8.96484375 7.792968750000002  8.37890625 8.37890625  C 7.79296875 8.964843749999998  7.5 9.671874999999996  7.5 10.500000000000002  C 7.5 11.328125  7.79296875 12.035156250000002  8.37890625 12.62109375  C 8.96484375 13.207031250000002  9.671875 13.499999999999998  10.5 13.499999999999998  C 11.328125 13.499999999999998  12.03515625 13.207031250000002  12.62109375 12.62109375  Z M 25.21875 23.906249999999996  C 24.875000000000004 23.015625000000004  24.312500000000004 22.304687499999996  23.531249999999996 21.7734375  L 25.8984375 12.820312500000002  C 25.992187499999996 12.414062499999998  25.933593750000004 12.035156250000002  25.72265625 11.683593749999998  C 25.51171875 11.332031249999996  25.210937500000004 11.101562499999996  24.8203125 10.992187500000002  C 24.429687500000004 10.882812499999998  24.054687500000004 10.93359375  23.695312499999996 11.144531250000002  C 23.3359375 11.35546875  23.101562500000004 11.664062499999998  22.9921875 12.070312499999998  L 20.625 21.0234375  C 19.6875 21.1015625  18.8515625 21.441406249999996  18.1171875 22.04296875  C 17.3828125 22.644531249999996  16.890625 23.4140625  16.640625 24.3515625  C 16.328125 25.554687499999996  16.484375 26.6953125  17.109375 27.773437499999996  C 17.734375 28.8515625  18.6484375 29.546875  19.8515625 29.859375  C 21.0546875 30.171875  22.195312500000004 30.015625000000004  23.2734375 29.390625  C 24.351562499999996 28.765624999999996  25.046875000000004 27.8515625  25.359375000000004 26.6484375  C 25.609375 25.710937499999996  25.562500000000004 24.796875  25.21875 23.906249999999996  Z M 38.12109375 23.12109375  C 38.70703125 22.53515625  39 21.828124999999996  39 21  C 39 20.171874999999993  38.70703125 19.46484375  38.12109375 18.878906249999996  C 37.53515625 18.29296875  36.82812500000001 18  36 18  C 35.171875 18  34.46484375 18.29296875  33.87890625 18.878906249999996  C 33.29296875 19.46484375  33 20.171874999999993  33 21  C 33 21.828124999999996  33.29296875 22.53515625  33.87890625 23.12109375  C 34.46484375 23.70703125  35.171875 24  36 24  C 36.82812500000001 24  37.53515625 23.70703125  38.12109375 23.12109375  Z M 23.121093749999996 8.12109375  C 23.70703125 7.535156250000002  24 6.828125  24 5.999999999999998  C 24 5.1718749999999964  23.70703125 4.464843749999998  23.121093749999996 3.8789062500000004  C 22.53515625 3.2929687499999982  21.828125000000004 3.000000000000001  21 3.000000000000001  C 20.171875 3.000000000000001  19.46484375 3.2929687499999982  18.87890625 3.8789062500000004  C 18.29296875 4.464843749999998  18 5.1718749999999964  18 5.999999999999998  C 18 6.828125  18.29296875 7.535156250000002  18.87890625 8.12109375  C 19.46484375 8.707031249999998  20.171875 9  21 9  C 21.828125000000004 9  22.53515625 8.707031249999998  23.121093749999996 8.12109375  Z M 33.62109375 12.62109375  C 34.20703125 12.035156250000002  34.5 11.328125  34.5 10.500000000000002  C 34.5 9.671874999999996  34.20703125 8.964843749999998  33.62109375 8.37890625  C 33.03515625 7.792968750000002  32.328125 7.500000000000001  31.5 7.500000000000001  C 30.671875 7.500000000000001  29.96484375 7.792968750000002  29.378906250000004 8.37890625  C 28.79296875 8.964843749999998  28.5 9.671874999999996  28.5 10.500000000000002  C 28.5 11.328125  28.79296875 12.035156250000002  29.378906250000004 12.62109375  C 29.96484375 13.207031250000002  30.671875 13.499999999999998  31.5 13.499999999999998  C 32.328125 13.499999999999998  33.03515625 13.207031250000002  33.62109375 12.62109375  Z M 40.3359375 12.843749999999998  C 41.44531250000001 15.4375  42 18.15625  42 21  C 42 25.078125000000004  40.8984375 28.8515625  38.6953125 32.3203125  C 38.3984375 32.7734375  37.97656250000001 33  37.4296875 33  L 4.5703125 33  C 4.0234375 33  3.6015625000000004 32.7734375  3.3046875 32.3203125  C 1.1015625 28.8671875  0 25.093750000000004  0 21  C 0 18.15625  0.5546874999999999 15.4375  1.6640625 12.843749999999998  C 2.7734375 10.249999999999998  4.265625 8.015625  6.140625 6.140624999999998  C 8.015625 4.265625  10.25 2.7734374999999982  12.843750000000002 1.6640624999999996  C 15.437500000000002 0.5546874999999974  18.15625 0  21 0  C 23.84375 0  26.562500000000004 0.5546874999999974  29.15625 1.6640624999999996  C 31.750000000000004 2.7734374999999982  33.984375 4.265625  35.859375 6.140624999999998  C 37.73437500000001 8.015625  39.22656250000001 10.249999999999998  40.3359375 12.843749999999998  Z " fill-rule="nonzero" fill="#ff8f0c" stroke="none" transform="matrix(1 0 0 1 226 43 )" />
  </g>
</svg>